<?xml version="1.0" encoding="UTF-8" standalone="no"?>
<!DOCTYPE svg PUBLIC "-//W3C//DTD SVG 1.1//EN"
 "http://www.w3.org/Graphics/SVG/1.1/DTD/svg11.dtd">
<!-- Generated by graphviz version 14.1.1 (20251213.1925)
 -->
<!-- Title: argument_graph Pages: 1 -->
<svg width="1267pt" height="693pt"
 viewBox="0.00 0.00 1267.00 693.00" xmlns="http://www.w3.org/2000/svg" xmlns:xlink="http://www.w3.org/1999/xlink">
<g id="graph0" class="graph" transform="scale(1 1) rotate(0) translate(4 688.62)">
<title>argument_graph</title>
<polygon fill="white" stroke="none" points="-4,4 -4,-688.62 1262.8,-688.62 1262.8,4 -4,4"/>
<!-- C1 -->
<g id="node1" class="node">
<title>C1</title>
<polygon fill="#ffd700" stroke="#daa520" points="556.05,-684.62 438.05,-684.62 438.05,-642.87 556.05,-642.87 556.05,-684.62"/>
<text xml:space="preserve" text-anchor="middle" x="497.05" y="-671.12" font-family="Helvetica,sans-Serif" font-size="10.00">SARS&#45;CoV&#45;2 is</text>
<text xml:space="preserve" text-anchor="middle" x="497.05" y="-659.87" font-family="Helvetica,sans-Serif" font-size="10.00">transmitted primarily by</text>
<text xml:space="preserve" text-anchor="middle" x="497.05" y="-648.62" font-family="Helvetica,sans-Serif" font-size="10.00">the airborne route.</text>
</g>
<!-- SC1 -->
<g id="node2" class="node">
<title>SC1</title>
<polygon fill="#6fb1fc" stroke="#4a90d9" points="361.42,-505.27 230.67,-505.27 230.67,-441.02 361.42,-441.02 361.42,-505.27"/>
<text xml:space="preserve" text-anchor="middle" x="296.05" y="-491.77" font-family="Helvetica,sans-Serif" font-size="10.00">The transmission</text>
<text xml:space="preserve" text-anchor="middle" x="296.05" y="-480.52" font-family="Helvetica,sans-Serif" font-size="10.00">patterns observed in</text>
<text xml:space="preserve" text-anchor="middle" x="296.05" y="-469.27" font-family="Helvetica,sans-Serif" font-size="10.00">superspreading events are</text>
<text xml:space="preserve" text-anchor="middle" x="296.05" y="-458.02" font-family="Helvetica,sans-Serif" font-size="10.00">inconsistent with droplet</text>
<text xml:space="preserve" text-anchor="middle" x="296.05" y="-446.77" font-family="Helvetica,sans-Serif" font-size="10.00">or fomite…</text>
</g>
<!-- link_accc24 -->
<g id="node18" class="node">
<title>link_accc24</title>
<polygon fill="#7fc97f" stroke="#5a9a5a" points="364.05,-584.87 353.25,-574.07 364.05,-563.27 374.85,-574.07 364.05,-584.87"/>
</g>
<!-- SC1&#45;&gt;link_accc24 -->
<g id="edge7" class="edge">
<title>SC1&#45;&gt;link_accc24</title>
<path fill="none" stroke="#5a9a5a" stroke-width="1.5" d="M357.33,-505.63C357.33,-505.63 357.33,-557.05 357.33,-557.05"/>
<polygon fill="#5a9a5a" stroke="#5a9a5a" stroke-width="1.5" points="353.83,-557.05 357.33,-567.05 360.83,-557.05 353.83,-557.05"/>
</g>
<!-- S1 -->
<g id="node3" class="node">
<title>S1</title>
<ellipse fill="#f5a45d" stroke="#d4843d" cx="94.05" cy="-265.94" rx="94.05" ry="29.52"/>
<text xml:space="preserve" text-anchor="middle" x="94.05" y="-273.31" font-family="Helvetica,sans-Serif" font-size="10.00">Superspreading events</text>
<text xml:space="preserve" text-anchor="middle" x="94.05" y="-262.06" font-family="Helvetica,sans-Serif" font-size="10.00">account for substantial</text>
<text xml:space="preserve" text-anchor="middle" x="94.05" y="-250.81" font-family="Helvetica,sans-Serif" font-size="10.00">SARS&#45;CoV&#45;2 transmission</text>
</g>
<!-- link_8e5954 -->
<g id="node16" class="node">
<title>link_8e5954</title>
<polygon fill="#7fc97f" stroke="#5a9a5a" points="162.05,-383.02 151.25,-372.22 162.05,-361.42 172.85,-372.22 162.05,-383.02"/>
</g>
<!-- S1&#45;&gt;link_8e5954 -->
<g id="edge3" class="edge">
<title>S1&#45;&gt;link_8e5954</title>
<path fill="none" stroke="#5a9a5a" stroke-width="1.5" d="M162.05,-286.68C162.05,-286.68 162.05,-348.44 162.05,-348.44"/>
<polygon fill="#5a9a5a" stroke="#5a9a5a" stroke-width="1.5" points="158.55,-348.44 162.05,-358.44 165.55,-348.44 158.55,-348.44"/>
</g>
<!-- S2 -->
<g id="node4" class="node">
<title>S2</title>
<ellipse fill="#f5a45d" stroke="#d4843d" cx="296.05" cy="-45.43" rx="84.5" ry="45.43"/>
<text xml:space="preserve" text-anchor="middle" x="296.05" y="-64.06" font-family="Helvetica,sans-Serif" font-size="10.00">Detailed analyses of</text>
<text xml:space="preserve" text-anchor="middle" x="296.05" y="-52.81" font-family="Helvetica,sans-Serif" font-size="10.00">superspreading events</text>
<text xml:space="preserve" text-anchor="middle" x="296.05" y="-41.56" font-family="Helvetica,sans-Serif" font-size="10.00">have found patterns of</text>
<text xml:space="preserve" text-anchor="middle" x="296.05" y="-30.31" font-family="Helvetica,sans-Serif" font-size="10.00">long&#45;range transmission</text>
<text xml:space="preserve" text-anchor="middle" x="296.05" y="-19.06" font-family="Helvetica,sans-Serif" font-size="10.00">and…</text>
</g>
<!-- link_093181 -->
<g id="node15" class="node">
<title>link_093181</title>
<polygon fill="#7fc97f" stroke="#5a9a5a" points="296.05,-170.46 285.25,-159.66 296.05,-148.86 306.85,-159.66 296.05,-170.46"/>
</g>
<!-- S2&#45;&gt;link_093181 -->
<g id="edge1" class="edge">
<title>S2&#45;&gt;link_093181</title>
<path fill="none" stroke="#5a9a5a" stroke-width="1.5" d="M296.05,-91.24C296.05,-91.24 296.05,-136.09 296.05,-136.09"/>
<polygon fill="#5a9a5a" stroke="#5a9a5a" stroke-width="1.5" points="292.55,-136.09 296.05,-146.09 299.55,-136.09 292.55,-136.09"/>
</g>
<!-- S3 -->
<g id="node5" class="node">
<title>S3</title>
<polygon fill="#6fb1fc" stroke="#4a90d9" points="360.67,-292.44 231.42,-292.44 231.42,-239.44 360.67,-239.44 360.67,-292.44"/>
<text xml:space="preserve" text-anchor="middle" x="296.05" y="-278.94" font-family="Helvetica,sans-Serif" font-size="10.00">The observed patterns of</text>
<text xml:space="preserve" text-anchor="middle" x="296.05" y="-267.69" font-family="Helvetica,sans-Serif" font-size="10.00">long&#45;range transmission</text>
<text xml:space="preserve" text-anchor="middle" x="296.05" y="-256.44" font-family="Helvetica,sans-Serif" font-size="10.00">and overdispersion are</text>
<text xml:space="preserve" text-anchor="middle" x="296.05" y="-245.19" font-family="Helvetica,sans-Serif" font-size="10.00">consistent with airborne…</text>
</g>
<!-- link_dee4b8 -->
<g id="node17" class="node">
<title>link_dee4b8</title>
<polygon fill="#7fc97f" stroke="#5a9a5a" points="296.05,-383.02 285.25,-372.22 296.05,-361.42 306.85,-372.22 296.05,-383.02"/>
</g>
<!-- S3&#45;&gt;link_dee4b8 -->
<g id="edge5" class="edge">
<title>S3&#45;&gt;link_dee4b8</title>
<path fill="none" stroke="#5a9a5a" stroke-width="1.5" d="M296.05,-292.76C296.05,-292.76 296.05,-348.68 296.05,-348.68"/>
<polygon fill="#5a9a5a" stroke="#5a9a5a" stroke-width="1.5" points="292.55,-348.68 296.05,-358.68 299.55,-348.68 292.55,-348.68"/>
</g>
<!-- SC2 -->
<g id="node6" class="node">
<title>SC2</title>
<polygon fill="#6fb1fc" stroke="#4a90d9" points="559.8,-505.27 434.3,-505.27 434.3,-441.02 559.8,-441.02 559.8,-505.27"/>
<text xml:space="preserve" text-anchor="middle" x="497.05" y="-491.77" font-family="Helvetica,sans-Serif" font-size="10.00">SARS&#45;CoV&#45;2 can spread</text>
<text xml:space="preserve" text-anchor="middle" x="497.05" y="-480.52" font-family="Helvetica,sans-Serif" font-size="10.00">between individuals who</text>
<text xml:space="preserve" text-anchor="middle" x="497.05" y="-469.27" font-family="Helvetica,sans-Serif" font-size="10.00">are physically separated</text>
<text xml:space="preserve" text-anchor="middle" x="497.05" y="-458.02" font-family="Helvetica,sans-Serif" font-size="10.00">and have no direct</text>
<text xml:space="preserve" text-anchor="middle" x="497.05" y="-446.77" font-family="Helvetica,sans-Serif" font-size="10.00">contact.</text>
</g>
<!-- link_e07209 -->
<g id="node19" class="node">
<title>link_e07209</title>
<polygon fill="#7fc97f" stroke="#5a9a5a" points="497.05,-584.87 486.25,-574.07 497.05,-563.27 507.85,-574.07 497.05,-584.87"/>
</g>
<!-- SC2&#45;&gt;link_e07209 -->
<g id="edge9" class="edge">
<title>SC2&#45;&gt;link_e07209</title>
<path fill="none" stroke="#5a9a5a" stroke-width="1.5" d="M497.05,-505.63C497.05,-505.63 497.05,-550.45 497.05,-550.45"/>
<polygon fill="#5a9a5a" stroke="#5a9a5a" stroke-width="1.5" points="493.55,-550.45 497.05,-560.45 500.55,-550.45 493.55,-550.45"/>
</g>
<!-- S4 -->
<g id="node7" class="node">
<title>S4</title>
<ellipse fill="#f5a45d" stroke="#d4843d" cx="497.05" cy="-265.94" rx="93.51" ry="37.48"/>
<text xml:space="preserve" text-anchor="middle" x="497.05" y="-278.94" font-family="Helvetica,sans-Serif" font-size="10.00">Long&#45;range transmission</text>
<text xml:space="preserve" text-anchor="middle" x="497.05" y="-267.69" font-family="Helvetica,sans-Serif" font-size="10.00">of SARS&#45;CoV&#45;2 between</text>
<text xml:space="preserve" text-anchor="middle" x="497.05" y="-256.44" font-family="Helvetica,sans-Serif" font-size="10.00">people in adjacent rooms</text>
<text xml:space="preserve" text-anchor="middle" x="497.05" y="-245.19" font-family="Helvetica,sans-Serif" font-size="10.00">has been documented in…</text>
</g>
<!-- link_2609ba -->
<g id="node21" class="node">
<title>link_2609ba</title>
<polygon fill="#7fc97f" stroke="#5a9a5a" points="497.05,-383.02 486.25,-372.22 497.05,-361.42 507.85,-372.22 497.05,-383.02"/>
</g>
<!-- S4&#45;&gt;link_2609ba -->
<g id="edge13" class="edge">
<title>S4&#45;&gt;link_2609ba</title>
<path fill="none" stroke="#5a9a5a" stroke-width="1.5" d="M497.05,-303.71C497.05,-303.71 497.05,-348.81 497.05,-348.81"/>
<polygon fill="#5a9a5a" stroke="#5a9a5a" stroke-width="1.5" points="493.55,-348.81 497.05,-358.81 500.55,-348.81 493.55,-348.81"/>
</g>
<!-- SC3 -->
<g id="node8" class="node">
<title>SC3</title>
<polygon fill="#6fb1fc" stroke="#4a90d9" points="839.17,-505.27 718.92,-505.27 718.92,-441.02 839.17,-441.02 839.17,-505.27"/>
<text xml:space="preserve" text-anchor="middle" x="779.05" y="-491.77" font-family="Helvetica,sans-Serif" font-size="10.00">Transmission occurs</text>
<text xml:space="preserve" text-anchor="middle" x="779.05" y="-480.52" font-family="Helvetica,sans-Serif" font-size="10.00">through aerosols</text>
<text xml:space="preserve" text-anchor="middle" x="779.05" y="-469.27" font-family="Helvetica,sans-Serif" font-size="10.00">generated during normal</text>
<text xml:space="preserve" text-anchor="middle" x="779.05" y="-458.02" font-family="Helvetica,sans-Serif" font-size="10.00">speech and breathing,</text>
<text xml:space="preserve" text-anchor="middle" x="779.05" y="-446.77" font-family="Helvetica,sans-Serif" font-size="10.00">even in the…</text>
</g>
<!-- link_2b15aa -->
<g id="node20" class="node">
<title>link_2b15aa</title>
<polygon fill="#7fc97f" stroke="#5a9a5a" points="628.05,-584.87 617.25,-574.07 628.05,-563.27 638.85,-574.07 628.05,-584.87"/>
</g>
<!-- SC3&#45;&gt;link_2b15aa -->
<g id="edge11" class="edge">
<title>SC3&#45;&gt;link_2b15aa</title>
<path fill="none" stroke="#5a9a5a" stroke-width="1.5" d="M718.76,-473.62C675.71,-473.62 625.4,-473.62 625.4,-473.62 625.4,-473.62 625.4,-553.23 625.4,-553.23"/>
<polygon fill="#5a9a5a" stroke="#5a9a5a" stroke-width="1.5" points="621.9,-553.23 625.4,-563.23 628.9,-553.23 621.9,-553.23"/>
</g>
<!-- S5 -->
<g id="node9" class="node">
<title>S5</title>
<ellipse fill="#f5a45d" stroke="#d4843d" cx="694.05" cy="-45.43" rx="89.27" ry="37.48"/>
<text xml:space="preserve" text-anchor="middle" x="694.05" y="-58.43" font-family="Helvetica,sans-Serif" font-size="10.00">33&#45;59% of all</text>
<text xml:space="preserve" text-anchor="middle" x="694.05" y="-47.18" font-family="Helvetica,sans-Serif" font-size="10.00">transmission comes from</text>
<text xml:space="preserve" text-anchor="middle" x="694.05" y="-35.93" font-family="Helvetica,sans-Serif" font-size="10.00">non&#45;coughing/sneezing</text>
<text xml:space="preserve" text-anchor="middle" x="694.05" y="-24.68" font-family="Helvetica,sans-Serif" font-size="10.00">individuals.</text>
</g>
<!-- link_373b80 -->
<g id="node22" class="node">
<title>link_373b80</title>
<polygon fill="#7fc97f" stroke="#5a9a5a" points="694.05,-170.46 683.25,-159.66 694.05,-148.86 704.85,-159.66 694.05,-170.46"/>
</g>
<!-- S5&#45;&gt;link_373b80 -->
<g id="edge15" class="edge">
<title>S5&#45;&gt;link_373b80</title>
<path fill="none" stroke="#5a9a5a" stroke-width="1.5" d="M694.05,-83.15C694.05,-83.15 694.05,-136.09 694.05,-136.09"/>
<polygon fill="#5a9a5a" stroke="#5a9a5a" stroke-width="1.5" points="690.55,-136.09 694.05,-146.09 697.55,-136.09 690.55,-136.09"/>
</g>
<!-- S6 -->
<g id="node10" class="node">
<title>S6</title>
<ellipse fill="#f5a45d" stroke="#d4843d" cx="1035.05" cy="-45.43" rx="80.79" ry="37.48"/>
<text xml:space="preserve" text-anchor="middle" x="1035.05" y="-58.43" font-family="Helvetica,sans-Serif" font-size="10.00">Speaking produces</text>
<text xml:space="preserve" text-anchor="middle" x="1035.05" y="-47.18" font-family="Helvetica,sans-Serif" font-size="10.00">thousands of aerosol</text>
<text xml:space="preserve" text-anchor="middle" x="1035.05" y="-35.93" font-family="Helvetica,sans-Serif" font-size="10.00">particles and few large</text>
<text xml:space="preserve" text-anchor="middle" x="1035.05" y="-24.68" font-family="Helvetica,sans-Serif" font-size="10.00">droplets</text>
</g>
<!-- link_625127 -->
<g id="node23" class="node">
<title>link_625127</title>
<polygon fill="#7fc97f" stroke="#5a9a5a" points="1035.05,-170.46 1024.25,-159.66 1035.05,-148.86 1045.85,-159.66 1035.05,-170.46"/>
</g>
<!-- S6&#45;&gt;link_625127 -->
<g id="edge17" class="edge">
<title>S6&#45;&gt;link_625127</title>
<path fill="none" stroke="#5a9a5a" stroke-width="1.5" d="M1035.05,-83.15C1035.05,-83.15 1035.05,-136.09 1035.05,-136.09"/>
<polygon fill="#5a9a5a" stroke="#5a9a5a" stroke-width="1.5" points="1031.55,-136.09 1035.05,-146.09 1038.55,-136.09 1031.55,-136.09"/>
</g>
<!-- P_7b77a94b -->
<g id="node11" class="node">
<title>P_7b77a94b</title>
<polygon fill="#c2e0ff" stroke="#a8ccf0" points="754.55,-292.44 633.55,-292.44 633.55,-239.44 754.55,-239.44 754.55,-292.44"/>
<text xml:space="preserve" text-anchor="middle" x="694.05" y="-278.94" font-family="Helvetica,sans-Serif" font-size="10.00">Transmission without</text>
<text xml:space="preserve" text-anchor="middle" x="694.05" y="-267.69" font-family="Helvetica,sans-Serif" font-size="10.00">coughing/sneezing rules</text>
<text xml:space="preserve" text-anchor="middle" x="694.05" y="-256.44" font-family="Helvetica,sans-Serif" font-size="10.00">out droplets as sole</text>
<text xml:space="preserve" text-anchor="middle" x="694.05" y="-245.19" font-family="Helvetica,sans-Serif" font-size="10.00">mechanism of spread.</text>
</g>
<!-- link_456fe3 -->
<g id="node24" class="node">
<title>link_456fe3</title>
<polygon fill="#7fc97f" stroke="#5a9a5a" points="779.05,-383.02 768.25,-372.22 779.05,-361.42 789.85,-372.22 779.05,-383.02"/>
</g>
<!-- P_7b77a94b&#45;&gt;link_456fe3 -->
<g id="edge19" class="edge">
<title>P_7b77a94b&#45;&gt;link_456fe3</title>
<path fill="none" stroke="#5a9a5a" stroke-width="1.5" d="M736.73,-292.86C736.73,-324.46 736.73,-372.62 736.73,-372.62 736.73,-372.62 756.1,-372.62 756.1,-372.62"/>
<polygon fill="#5a9a5a" stroke="#5a9a5a" stroke-width="1.5" points="756.1,-376.12 766.1,-372.62 756.1,-369.12 756.1,-376.12"/>
</g>
<!-- P_176d8424 -->
<g id="node12" class="node">
<title>P_176d8424</title>
<polygon fill="#c2e0ff" stroke="#a8ccf0" points="1096.3,-298.06 973.8,-298.06 973.8,-233.81 1096.3,-233.81 1096.3,-298.06"/>
<text xml:space="preserve" text-anchor="middle" x="1035.05" y="-284.56" font-family="Helvetica,sans-Serif" font-size="10.00">Aerosol particles</text>
<text xml:space="preserve" text-anchor="middle" x="1035.05" y="-273.31" font-family="Helvetica,sans-Serif" font-size="10.00">generated during speech</text>
<text xml:space="preserve" text-anchor="middle" x="1035.05" y="-262.06" font-family="Helvetica,sans-Serif" font-size="10.00">can carry and transmit</text>
<text xml:space="preserve" text-anchor="middle" x="1035.05" y="-250.81" font-family="Helvetica,sans-Serif" font-size="10.00">SARS&#45;CoV&#45;2 virus to</text>
<text xml:space="preserve" text-anchor="middle" x="1035.05" y="-239.56" font-family="Helvetica,sans-Serif" font-size="10.00">susceptible…</text>
</g>
<!-- link_97d56f -->
<g id="node25" class="node">
<title>link_97d56f</title>
<polygon fill="#7fc97f" stroke="#5a9a5a" points="1035.05,-383.02 1024.25,-372.22 1035.05,-361.42 1045.85,-372.22 1035.05,-383.02"/>
</g>
<!-- P_176d8424&#45;&gt;link_97d56f -->
<g id="edge22" class="edge">
<title>P_176d8424&#45;&gt;link_97d56f</title>
<path fill="none" stroke="#5a9a5a" stroke-width="1.5" d="M1035.05,-298.4C1035.05,-298.4 1035.05,-348.62 1035.05,-348.62"/>
<polygon fill="#5a9a5a" stroke="#5a9a5a" stroke-width="1.5" points="1031.55,-348.62 1035.05,-358.62 1038.55,-348.62 1031.55,-348.62"/>
</g>
<!-- P_7b77a94b_SC3_aux1 -->
<g id="node13" class="node">
<title>P_7b77a94b_SC3_aux1</title>
<polygon fill="#c2e0ff" stroke="#a8ccf0" points="930.92,-298.06 797.17,-298.06 797.17,-233.81 930.92,-233.81 930.92,-298.06"/>
<text xml:space="preserve" text-anchor="middle" x="864.05" y="-284.56" font-family="Helvetica,sans-Serif" font-size="10.00">Coughing and sneezing</text>
<text xml:space="preserve" text-anchor="middle" x="864.05" y="-273.31" font-family="Helvetica,sans-Serif" font-size="10.00">are the primary</text>
<text xml:space="preserve" text-anchor="middle" x="864.05" y="-262.06" font-family="Helvetica,sans-Serif" font-size="10.00">mechanisms for generating</text>
<text xml:space="preserve" text-anchor="middle" x="864.05" y="-250.81" font-family="Helvetica,sans-Serif" font-size="10.00">large respiratory</text>
<text xml:space="preserve" text-anchor="middle" x="864.05" y="-239.56" font-family="Helvetica,sans-Serif" font-size="10.00">droplets.</text>
</g>
<!-- P_7b77a94b_SC3_aux1&#45;&gt;link_456fe3 -->
<g id="edge20" class="edge">
<title>P_7b77a94b_SC3_aux1&#45;&gt;link_456fe3</title>
<path fill="none" stroke="#5a9a5a" stroke-width="1.5" stroke-dasharray="5,2" d="M811.17,-298.43C811.17,-328.51 811.17,-368.62 811.17,-368.62 811.17,-368.62 799.09,-368.62 799.09,-368.62"/>
<polygon fill="#5a9a5a" stroke="#5a9a5a" stroke-width="1.5" points="799.09,-365.12 789.09,-368.62 799.09,-372.12 799.09,-365.12"/>
</g>
<!-- P_176d8424_SC3_aux1 -->
<g id="node14" class="node">
<title>P_176d8424_SC3_aux1</title>
<polygon fill="#c2e0ff" stroke="#a8ccf0" points="1258.8,-298.06 1139.3,-298.06 1139.3,-233.81 1258.8,-233.81 1258.8,-298.06"/>
<text xml:space="preserve" text-anchor="middle" x="1199.05" y="-284.56" font-family="Helvetica,sans-Serif" font-size="10.00">Aerosol particles are</text>
<text xml:space="preserve" text-anchor="middle" x="1199.05" y="-273.31" font-family="Helvetica,sans-Serif" font-size="10.00">small enough to remain</text>
<text xml:space="preserve" text-anchor="middle" x="1199.05" y="-262.06" font-family="Helvetica,sans-Serif" font-size="10.00">suspended in air and be</text>
<text xml:space="preserve" text-anchor="middle" x="1199.05" y="-250.81" font-family="Helvetica,sans-Serif" font-size="10.00">inhaled into the</text>
<text xml:space="preserve" text-anchor="middle" x="1199.05" y="-239.56" font-family="Helvetica,sans-Serif" font-size="10.00">respiratory…</text>
</g>
<!-- P_176d8424_SC3_aux1&#45;&gt;link_97d56f -->
<g id="edge23" class="edge">
<title>P_176d8424_SC3_aux1&#45;&gt;link_97d56f</title>
<path fill="none" stroke="#5a9a5a" stroke-width="1.5" stroke-dasharray="5,2" d="M1199.05,-298.53C1199.05,-329.9 1199.05,-372.62 1199.05,-372.62 1199.05,-372.62 1058.33,-372.62 1058.33,-372.62"/>
<polygon fill="#5a9a5a" stroke="#5a9a5a" stroke-width="1.5" points="1058.33,-369.12 1048.33,-372.62 1058.33,-376.12 1058.33,-369.12"/>
</g>
<!-- link_093181&#45;&gt;S3 -->
<g id="edge2" class="edge">
<title>link_093181&#45;&gt;S3</title>
<path fill="none" stroke="#5a9a5a" stroke-width="1.5" d="M296.05,-171.04C296.05,-171.04 296.05,-227.03 296.05,-227.03"/>
<polygon fill="#5a9a5a" stroke="#5a9a5a" stroke-width="1.5" points="292.55,-227.03 296.05,-237.03 299.55,-227.03 292.55,-227.03"/>
</g>
<!-- link_8e5954&#45;&gt;SC1 -->
<g id="edge4" class="edge">
<title>link_8e5954&#45;&gt;SC1</title>
<path fill="none" stroke="#5a9a5a" stroke-width="1.5" d="M173.09,-372.62C198.38,-372.62 258.33,-372.62 258.33,-372.62 258.33,-372.62 258.33,-428.51 258.33,-428.51"/>
<polygon fill="#5a9a5a" stroke="#5a9a5a" stroke-width="1.5" points="254.83,-428.51 258.33,-438.51 261.83,-428.51 254.83,-428.51"/>
</g>
<!-- link_dee4b8&#45;&gt;SC1 -->
<g id="edge6" class="edge">
<title>link_dee4b8&#45;&gt;SC1</title>
<path fill="none" stroke="#5a9a5a" stroke-width="1.5" d="M296.05,-383.4C296.05,-383.4 296.05,-428.53 296.05,-428.53"/>
<polygon fill="#5a9a5a" stroke="#5a9a5a" stroke-width="1.5" points="292.55,-428.53 296.05,-438.53 299.55,-428.53 292.55,-428.53"/>
</g>
<!-- link_accc24&#45;&gt;C1 -->
<g id="edge8" class="edge">
<title>link_accc24&#45;&gt;C1</title>
<path fill="none" stroke="#5a9a5a" stroke-width="1.5" d="M364.05,-585.41C364.05,-609.5 364.05,-663.62 364.05,-663.62 364.05,-663.62 425.28,-663.62 425.28,-663.62"/>
<polygon fill="#5a9a5a" stroke="#5a9a5a" stroke-width="1.5" points="425.28,-667.12 435.28,-663.62 425.28,-660.12 425.28,-667.12"/>
</g>
<!-- link_e07209&#45;&gt;C1 -->
<g id="edge10" class="edge">
<title>link_e07209&#45;&gt;C1</title>
<path fill="none" stroke="#5a9a5a" stroke-width="1.5" d="M497.05,-585.42C497.05,-585.42 497.05,-630.29 497.05,-630.29"/>
<polygon fill="#5a9a5a" stroke="#5a9a5a" stroke-width="1.5" points="493.55,-630.29 497.05,-640.29 500.55,-630.29 493.55,-630.29"/>
</g>
<!-- link_2b15aa&#45;&gt;C1 -->
<g id="edge12" class="edge">
<title>link_2b15aa&#45;&gt;C1</title>
<path fill="none" stroke="#5a9a5a" stroke-width="1.5" d="M628.05,-585.41C628.05,-609.5 628.05,-663.62 628.05,-663.62 628.05,-663.62 568.68,-663.62 568.68,-663.62"/>
<polygon fill="#5a9a5a" stroke="#5a9a5a" stroke-width="1.5" points="568.68,-660.12 558.68,-663.62 568.68,-667.12 568.68,-660.12"/>
</g>
<!-- link_2609ba&#45;&gt;SC2 -->
<g id="edge14" class="edge">
<title>link_2609ba&#45;&gt;SC2</title>
<path fill="none" stroke="#5a9a5a" stroke-width="1.5" d="M497.05,-383.4C497.05,-383.4 497.05,-428.53 497.05,-428.53"/>
<polygon fill="#5a9a5a" stroke="#5a9a5a" stroke-width="1.5" points="493.55,-428.53 497.05,-438.53 500.55,-428.53 493.55,-428.53"/>
</g>
<!-- link_373b80&#45;&gt;P_7b77a94b -->
<g id="edge16" class="edge">
<title>link_373b80&#45;&gt;P_7b77a94b</title>
<path fill="none" stroke="#5a9a5a" stroke-width="1.5" d="M694.05,-171.04C694.05,-171.04 694.05,-227.03 694.05,-227.03"/>
<polygon fill="#5a9a5a" stroke="#5a9a5a" stroke-width="1.5" points="690.55,-227.03 694.05,-237.03 697.55,-227.03 690.55,-227.03"/>
</g>
<!-- link_625127&#45;&gt;P_176d8424 -->
<g id="edge18" class="edge">
<title>link_625127&#45;&gt;P_176d8424</title>
<path fill="none" stroke="#5a9a5a" stroke-width="1.5" d="M1035.05,-171.04C1035.05,-171.04 1035.05,-221.19 1035.05,-221.19"/>
<polygon fill="#5a9a5a" stroke="#5a9a5a" stroke-width="1.5" points="1031.55,-221.19 1035.05,-231.19 1038.55,-221.19 1031.55,-221.19"/>
</g>
<!-- link_456fe3&#45;&gt;SC3 -->
<g id="edge21" class="edge">
<title>link_456fe3&#45;&gt;SC3</title>
<path fill="none" stroke="#5a9a5a" stroke-width="1.5" d="M779.05,-383.4C779.05,-383.4 779.05,-428.53 779.05,-428.53"/>
<polygon fill="#5a9a5a" stroke="#5a9a5a" stroke-width="1.5" points="775.55,-428.53 779.05,-438.53 782.55,-428.53 775.55,-428.53"/>
</g>
<!-- link_97d56f&#45;&gt;SC3 -->
<g id="edge24" class="edge">
<title>link_97d56f&#45;&gt;SC3</title>
<path fill="none" stroke="#5a9a5a" stroke-width="1.5" d="M1027.07,-375.62C988.74,-375.62 825.17,-375.62 825.17,-375.62 825.17,-375.62 825.17,-428.4 825.17,-428.4"/>
<polygon fill="#5a9a5a" stroke="#5a9a5a" stroke-width="1.5" points="821.67,-428.4 825.17,-438.4 828.67,-428.4 821.67,-428.4"/>
</g>
</g>
</svg>
